# xmcd CD database file generated by Grip 2.94
# 
# Track frame offsets:
#       150
#       18015
#       32132
#       55797
#       77480
#       91017
#       113405
#       128617
#       142875
#       168010
#       186027
#       207335
#       223540
#       243945
#       256350
#       282682
# 
# Disc length: 4034 seconds
# 
# Revision: 3
# Processed by: cddbd v1.4b41PL1 Copyright (c) Steve Scherf et al.
# Submitted via: Grip 2.94
# 
DISCID=c80fc010
DTITLE=Gambetta and Crary - Live on Tour 2000
DYEAR=1900
DGENRE=
TTITLE0=Huckleberry Hornpipe
TTITLE1=Stories We Can Tell
TTITLE2=Mozart in Hell
TTITLE3=Nashville Blues
TTITLE4=L'Iride (Mazurka)
TTITLE5=Rollin' in My Sweet Baby's Arms
TTITLE6=Thunderation
TTITLE7=Jimmie Brown the Newsboy
TTITLE8=Creuza De Ma
TTITLE9=Black Mountain Rag
TTITLE10=Ain't No California
TTITLE11=John Hardy
TTITLE12=Banderilla
TTITLE13=Incredible
TTITLE14=Life's Railway to Heaven - Soldier's Joy
TTITLE15=Freeborn Man
EXTD=
EXTT0=
EXTT1=
EXTT2=
EXTT3=
EXTT4=
EXTT5=
EXTT6=
EXTT7=
EXTT8=
EXTT9=
EXTT10=
EXTT11=
EXTT12=
EXTT13=
EXTT14=
EXTT15=
PLAYORDER=
